<svg width="43" height="38" viewBox="0 0 43 38" fill="none" xmlns="http://www.w3.org/2000/svg">
<rect width="43" height="38" rx="4" fill="#594EE0"/>
<path d="M9.764 26V13.4H14.696C15.596 13.4 16.406 13.55 17.126 13.85C17.858 14.15 18.482 14.582 18.998 15.146C19.514 15.71 19.91 16.376 20.186 17.144C20.462 17.912 20.6 18.764 20.6 19.7C20.6 20.636 20.462 21.494 20.186 22.274C19.91 23.042 19.514 23.708 18.998 24.272C18.494 24.824 17.876 25.25 17.144 25.55C16.412 25.85 15.596 26 14.696 26H9.764ZM11.708 24.326L11.654 24.128H14.606C15.242 24.128 15.806 24.026 16.298 23.822C16.802 23.618 17.222 23.33 17.558 22.958C17.906 22.574 18.17 22.106 18.35 21.554C18.53 21.002 18.62 20.384 18.62 19.7C18.62 19.016 18.53 18.404 18.35 17.864C18.17 17.312 17.906 16.844 17.558 16.46C17.21 16.076 16.79 15.782 16.298 15.578C15.806 15.374 15.242 15.272 14.606 15.272H11.6L11.708 15.11V24.326ZM23.2288 26V13.4H28.4848C29.2888 13.4 29.9668 13.52 30.5188 13.76C31.0708 14 31.4848 14.36 31.7608 14.84C32.0488 15.308 32.1928 15.884 32.1928 16.568C32.1928 17.252 32.0008 17.834 31.6168 18.314C31.2448 18.794 30.7228 19.124 30.0508 19.304V18.944C30.6148 19.064 31.1068 19.28 31.5268 19.592C31.9468 19.892 32.2708 20.27 32.4988 20.726C32.7388 21.182 32.8588 21.704 32.8588 22.292C32.8588 22.892 32.7628 23.426 32.5708 23.894C32.3908 24.35 32.1148 24.734 31.7428 25.046C31.3828 25.358 30.9448 25.598 30.4288 25.766C29.9128 25.922 29.3248 26 28.6648 26H23.2288ZM25.1728 24.128H28.5568C29.0488 24.128 29.4628 24.056 29.7988 23.912C30.1468 23.768 30.4108 23.558 30.5908 23.282C30.7828 22.994 30.8788 22.652 30.8788 22.256C30.8788 21.884 30.7768 21.566 30.5728 21.302C30.3808 21.038 30.1048 20.84 29.7448 20.708C29.3848 20.564 28.9588 20.492 28.4668 20.492H25.1728V24.128ZM25.1728 18.62H28.3768C28.7368 18.62 29.0548 18.548 29.3308 18.404C29.6188 18.26 29.8408 18.062 29.9968 17.81C30.1648 17.558 30.2488 17.27 30.2488 16.946C30.2488 16.406 30.0688 15.992 29.7088 15.704C29.3488 15.416 28.8328 15.272 28.1608 15.272H25.1728V18.62Z" fill="white"/>
</svg>
